<svg xmlns="http://www.w3.org/2000/svg" version="1.1" xmlns:xlink="http://www.w3.org/1999/xlink" xmlns:svgjs="http://svgjs.dev/svgjs" viewBox="0 0 1920 1920"><circle r="96" cx="96" cy="480" stroke="#ffd53d" fill="#ffd53d" transform="matrix(0.75,0,0,0.75,24,120)"/><line x1="0" y1="576" x2="192" y2="768" stroke="#1d1934" transform="matrix(0.75,0,0,0.75,24,168)"/><rect width="192" height="192" x="0" y="960" stroke="#f25c54" fill="#f25c54" transform="matrix(0.75,0,0,0.75,24,264)"/><rect width="192" height="192" x="0" y="1344" stroke="#f25c54" fill="#f25c54" transform="matrix(0.75,0,0,0.75,24,360)"/><line x1="0" y1="1728" x2="192" y2="1920" stroke="#1d1934" transform="matrix(0.75,0,0,0.75,24,456)"/><line x1="192" y1="0" x2="384" y2="192" stroke="#1d1934" transform="matrix(0.75,0,0,0.75,72,24)"/><line x1="192" y1="192" x2="384" y2="384" stroke="#1d1934" transform="matrix(0.75,0,0,0.75,72,72)"/><rect width="192" height="192" x="192" y="768" stroke="#f25c54" fill="#f25c54" transform="matrix(0.75,0,0,0.75,72,216)"/><rect width="192" height="192" x="192" y="1344" stroke="#f25c54" fill="#f25c54" transform="matrix(0.75,0,0,0.75,72,360)"/><rect width="192" height="192" x="192" y="1536" stroke="#f25c54" fill="#f25c54" transform="matrix(0.75,0,0,0.75,72,408)"/><rect width="192" height="192" x="384" y="192" stroke="#f25c54" fill="#f25c54" transform="matrix(0.75,0,0,0.75,120,72)"/><circle r="96" cx="480" cy="480" stroke="#ffd53d" fill="#ffd53d" transform="matrix(0.75,0,0,0.75,120,120)"/><rect width="192" height="192" x="384" y="576" stroke="#f25c54" fill="#f25c54" transform="matrix(0.75,0,0,0.75,120,168)"/><circle r="96" cx="480" cy="864" stroke="#ffd53d" fill="#ffd53d" transform="matrix(0.75,0,0,0.75,120,216)"/><rect width="192" height="192" x="384" y="960" stroke="#f25c54" fill="#f25c54" transform="matrix(0.75,0,0,0.75,120,264)"/><circle r="96" cx="480" cy="1248" stroke="#ffd53d" fill="#ffd53d" transform="matrix(0.75,0,0,0.75,120,312)"/><line x1="384" y1="1536" x2="576" y2="1728" stroke="#1d1934" transform="matrix(0.75,0,0,0.75,120,408)"/><circle r="96" cx="480" cy="1824" stroke="#ffd53d" fill="#ffd53d" transform="matrix(0.75,0,0,0.75,120,456)"/><line x1="576" y1="192" x2="768" y2="384" stroke="#1d1934" transform="matrix(0.75,0,0,0.75,168,72)"/><line x1="576" y1="960" x2="768" y2="1152" stroke="#1d1934" transform="matrix(0.75,0,0,0.75,168,264)"/><line x1="576" y1="1344" x2="768" y2="1536" stroke="#1d1934" transform="matrix(0.75,0,0,0.75,168,360)"/><circle r="96" cx="672" cy="1632" stroke="#ffd53d" fill="#ffd53d" transform="matrix(0.75,0,0,0.75,168,408)"/><rect width="192" height="192" x="576" y="1728" stroke="#f25c54" fill="#f25c54" transform="matrix(0.75,0,0,0.75,168,456)"/><circle r="96" cx="864" cy="96" stroke="#ffd53d" fill="#ffd53d" transform="matrix(0.75,0,0,0.75,216,24)"/><circle r="96" cx="864" cy="480" stroke="#ffd53d" fill="#ffd53d" transform="matrix(0.75,0,0,0.75,216,120)"/><rect width="192" height="192" x="768" y="960" stroke="#f25c54" fill="#f25c54" transform="matrix(0.75,0,0,0.75,216,264)"/><rect width="192" height="192" x="768" y="1152" stroke="#f25c54" fill="#f25c54" transform="matrix(0.75,0,0,0.75,216,312)"/><line x1="768" y1="1344" x2="960" y2="1536" stroke="#1d1934" transform="matrix(0.75,0,0,0.75,216,360)"/><circle r="96" cx="864" cy="1824" stroke="#ffd53d" fill="#ffd53d" transform="matrix(0.75,0,0,0.75,216,456)"/><circle r="96" cx="1056" cy="288" stroke="#ffd53d" fill="#ffd53d" transform="matrix(0.75,0,0,0.75,264,72)"/><circle r="96" cx="1056" cy="480" stroke="#ffd53d" fill="#ffd53d" transform="matrix(0.75,0,0,0.75,264,120)"/><line x1="960" y1="1728" x2="1152" y2="1920" stroke="#1d1934" transform="matrix(0.75,0,0,0.75,264,456)"/><circle r="96" cx="1248" cy="96" stroke="#ffd53d" fill="#ffd53d" transform="matrix(0.75,0,0,0.75,312,24)"/><rect width="192" height="192" x="1152" y="192" stroke="#f25c54" fill="#f25c54" transform="matrix(0.75,0,0,0.75,312,72)"/><circle r="96" cx="1248" cy="480" stroke="#ffd53d" fill="#ffd53d" transform="matrix(0.75,0,0,0.75,312,120)"/><circle r="96" cx="1248" cy="672" stroke="#ffd53d" fill="#ffd53d" transform="matrix(0.75,0,0,0.75,312,168)"/><circle r="96" cx="1248" cy="864" stroke="#ffd53d" fill="#ffd53d" transform="matrix(0.75,0,0,0.75,312,216)"/><rect width="192" height="192" x="1152" y="960" stroke="#f25c54" fill="#f25c54" transform="matrix(0.75,0,0,0.75,312,264)"/><line x1="1152" y1="1536" x2="1344" y2="1728" stroke="#1d1934" transform="matrix(0.75,0,0,0.75,312,408)"/><rect width="192" height="192" x="1344" y="192" stroke="#f25c54" fill="#f25c54" transform="matrix(0.75,0,0,0.75,360,72)"/><line x1="1344" y1="384" x2="1536" y2="576" stroke="#1d1934" transform="matrix(0.75,0,0,0.75,360,120)"/><circle r="96" cx="1440" cy="672" stroke="#ffd53d" fill="#ffd53d" transform="matrix(0.75,0,0,0.75,360,168)"/><rect width="192" height="192" x="1344" y="768" stroke="#f25c54" fill="#f25c54" transform="matrix(0.75,0,0,0.75,360,216)"/><rect width="192" height="192" x="1344" y="1152" stroke="#f25c54" fill="#f25c54" transform="matrix(0.75,0,0,0.75,360,312)"/><circle r="96" cx="1440" cy="1632" stroke="#ffd53d" fill="#ffd53d" transform="matrix(0.75,0,0,0.75,360,408)"/><circle r="96" cx="1440" cy="1824" stroke="#ffd53d" fill="#ffd53d" transform="matrix(0.75,0,0,0.75,360,456)"/><rect width="192" height="192" x="1536" y="192" stroke="#f25c54" fill="#f25c54" transform="matrix(0.75,0,0,0.75,408,72)"/><circle r="96" cx="1632" cy="672" stroke="#ffd53d" fill="#ffd53d" transform="matrix(0.75,0,0,0.75,408,168)"/><line x1="1536" y1="768" x2="1728" y2="960" stroke="#1d1934" transform="matrix(0.75,0,0,0.75,408,216)"/><rect width="192" height="192" x="1536" y="960" stroke="#f25c54" fill="#f25c54" transform="matrix(0.75,0,0,0.75,408,264)"/><circle r="96" cx="1632" cy="1440" stroke="#ffd53d" fill="#ffd53d" transform="matrix(0.75,0,0,0.75,408,360)"/><line x1="1728" y1="768" x2="1920" y2="960" stroke="#1d1934" transform="matrix(0.75,0,0,0.75,456,216)"/><line x1="1728" y1="1536" x2="1920" y2="1728" stroke="#1d1934" transform="matrix(0.75,0,0,0.75,456,408)"/><circle r="96" cx="1824" cy="1824" stroke="#ffd53d" fill="#ffd53d" transform="matrix(0.75,0,0,0.75,456,456)"/><circle r="96" cx="96" cy="480" stroke="#5e3dff" fill="#5e3dff" transform="matrix(0.75,0,0,0.75,24,120)"/><line x1="0" y1="576" x2="192" y2="768" stroke="#1d1934" transform="matrix(0.75,0,0,0.75,24,168)"/><rect width="192" height="192" x="0" y="960" stroke="#f25c54" fill="#f25c54" transform="matrix(0.75,0,0,0.75,24,264)"/><rect width="192" height="192" x="0" y="1344" stroke="#f25c54" fill="#f25c54" transform="matrix(0.75,0,0,0.75,24,360)"/><line x1="0" y1="1728" x2="192" y2="1920" stroke="#1d1934" transform="matrix(0.75,0,0,0.75,24,456)"/><line x1="192" y1="0" x2="384" y2="192" stroke="#1d1934" transform="matrix(0.75,0,0,0.75,72,24)"/><line x1="192" y1="192" x2="384" y2="384" stroke="#1d1934" transform="matrix(0.75,0,0,0.75,72,72)"/><rect width="192" height="192" x="192" y="768" stroke="#f25c54" fill="#f25c54" transform="matrix(0.75,0,0,0.75,72,216)"/><rect width="192" height="192" x="192" y="1344" stroke="#f25c54" fill="#f25c54" transform="matrix(0.75,0,0,0.75,72,360)"/><rect width="192" height="192" x="192" y="1536" stroke="#f25c54" fill="#f25c54" transform="matrix(0.75,0,0,0.75,72,408)"/><rect width="192" height="192" x="384" y="192" stroke="#f25c54" fill="#f25c54" transform="matrix(0.75,0,0,0.75,120,72)"/><circle r="96" cx="480" cy="480" stroke="#5e3dff" fill="#5e3dff" transform="matrix(0.75,0,0,0.75,120,120)"/><rect width="192" height="192" x="384" y="576" stroke="#f25c54" fill="#f25c54" transform="matrix(0.75,0,0,0.75,120,168)"/><circle r="96" cx="480" cy="864" stroke="#5e3dff" fill="#5e3dff" transform="matrix(0.75,0,0,0.75,120,216)"/><rect width="192" height="192" x="384" y="960" stroke="#f25c54" fill="#f25c54" transform="matrix(0.75,0,0,0.75,120,264)"/><circle r="96" cx="480" cy="1248" stroke="#5e3dff" fill="#5e3dff" transform="matrix(0.75,0,0,0.75,120,312)"/><line x1="384" y1="1536" x2="576" y2="1728" stroke="#1d1934" transform="matrix(0.75,0,0,0.75,120,408)"/><circle r="96" cx="480" cy="1824" stroke="#5e3dff" fill="#5e3dff" transform="matrix(0.75,0,0,0.75,120,456)"/><line x1="576" y1="192" x2="768" y2="384" stroke="#1d1934" transform="matrix(0.75,0,0,0.75,168,72)"/><line x1="576" y1="960" x2="768" y2="1152" stroke="#1d1934" transform="matrix(0.75,0,0,0.75,168,264)"/><line x1="576" y1="1344" x2="768" y2="1536" stroke="#1d1934" transform="matrix(0.75,0,0,0.75,168,360)"/><circle r="96" cx="672" cy="1632" stroke="#5e3dff" fill="#5e3dff" transform="matrix(0.75,0,0,0.75,168,408)"/><rect width="192" height="192" x="576" y="1728" stroke="#f25c54" fill="#f25c54" transform="matrix(0.75,0,0,0.75,168,456)"/><circle r="96" cx="864" cy="96" stroke="#5e3dff" fill="#5e3dff" transform="matrix(0.75,0,0,0.75,216,24)"/><circle r="96" cx="864" cy="480" stroke="#5e3dff" fill="#5e3dff" transform="matrix(0.75,0,0,0.75,216,120)"/><rect width="192" height="192" x="768" y="960" stroke="#f25c54" fill="#f25c54" transform="matrix(0.75,0,0,0.75,216,264)"/><rect width="192" height="192" x="768" y="1152" stroke="#f25c54" fill="#f25c54" transform="matrix(0.75,0,0,0.75,216,312)"/><line x1="768" y1="1344" x2="960" y2="1536" stroke="#1d1934" transform="matrix(0.75,0,0,0.75,216,360)"/><circle r="96" cx="864" cy="1824" stroke="#5e3dff" fill="#5e3dff" transform="matrix(0.75,0,0,0.75,216,456)"/><circle r="96" cx="1056" cy="288" stroke="#5e3dff" fill="#5e3dff" transform="matrix(0.75,0,0,0.75,264,72)"/><circle r="96" cx="1056" cy="480" stroke="#5e3dff" fill="#5e3dff" transform="matrix(0.75,0,0,0.75,264,120)"/><line x1="960" y1="1728" x2="1152" y2="1920" stroke="#1d1934" transform="matrix(0.75,0,0,0.75,264,456)"/><circle r="96" cx="1248" cy="96" stroke="#5e3dff" fill="#5e3dff" transform="matrix(0.75,0,0,0.75,312,24)"/><rect width="192" height="192" x="1152" y="192" stroke="#f25c54" fill="#f25c54" transform="matrix(0.75,0,0,0.75,312,72)"/><circle r="96" cx="1248" cy="480" stroke="#5e3dff" fill="#5e3dff" transform="matrix(0.75,0,0,0.75,312,120)"/><circle r="96" cx="1248" cy="672" stroke="#5e3dff" fill="#5e3dff" transform="matrix(0.75,0,0,0.75,312,168)"/><circle r="96" cx="1248" cy="864" stroke="#5e3dff" fill="#5e3dff" transform="matrix(0.75,0,0,0.75,312,216)"/><rect width="192" height="192" x="1152" y="960" stroke="#f25c54" fill="#f25c54" transform="matrix(0.75,0,0,0.75,312,264)"/><line x1="1152" y1="1536" x2="1344" y2="1728" stroke="#1d1934" transform="matrix(0.75,0,0,0.75,312,408)"/><rect width="192" height="192" x="1344" y="192" stroke="#f25c54" fill="#f25c54" transform="matrix(0.75,0,0,0.75,360,72)"/><line x1="1344" y1="384" x2="1536" y2="576" stroke="#1d1934" transform="matrix(0.75,0,0,0.75,360,120)"/><circle r="96" cx="1440" cy="672" stroke="#5e3dff" fill="#5e3dff" transform="matrix(0.75,0,0,0.75,360,168)"/><rect width="192" height="192" x="1344" y="768" stroke="#f25c54" fill="#f25c54" transform="matrix(0.75,0,0,0.75,360,216)"/><rect width="192" height="192" x="1344" y="1152" stroke="#f25c54" fill="#f25c54" transform="matrix(0.75,0,0,0.75,360,312)"/><circle r="96" cx="1440" cy="1632" stroke="#5e3dff" fill="#5e3dff" transform="matrix(0.75,0,0,0.75,360,408)"/><circle r="96" cx="1440" cy="1824" stroke="#5e3dff" fill="#5e3dff" transform="matrix(0.75,0,0,0.75,360,456)"/><rect width="192" height="192" x="1536" y="192" stroke="#f25c54" fill="#f25c54" transform="matrix(0.75,0,0,0.75,408,72)"/><circle r="96" cx="1632" cy="672" stroke="#5e3dff" fill="#5e3dff" transform="matrix(0.75,0,0,0.75,408,168)"/><line x1="1536" y1="768" x2="1728" y2="960" stroke="#1d1934" transform="matrix(0.75,0,0,0.75,408,216)"/><rect width="192" height="192" x="1536" y="960" stroke="#f25c54" fill="#f25c54" transform="matrix(0.75,0,0,0.75,408,264)"/><circle r="96" cx="1632" cy="1440" stroke="#5e3dff" fill="#5e3dff" transform="matrix(0.75,0,0,0.75,408,360)"/><line x1="1728" y1="768" x2="1920" y2="960" stroke="#1d1934" transform="matrix(0.75,0,0,0.75,456,216)"/><line x1="1728" y1="1536" x2="1920" y2="1728" stroke="#1d1934" transform="matrix(0.75,0,0,0.75,456,408)"/><circle r="96" cx="1824" cy="1824" stroke="#5e3dff" fill="#5e3dff" transform="matrix(0.75,0,0,0.75,456,456)"/></svg>