<svg xmlns="http://www.w3.org/2000/svg" version="1.1" xmlns:xlink="http://www.w3.org/1999/xlink" xmlns:svgjs="http://svgjs.dev/svgjs" viewBox="0 0 1920 1920"><circle r="96" cx="96" cy="96" stroke="#ffd53d" fill="#ffd53d" transform="matrix(0.75,0,0,0.75,24,24)"/><circle r="96" cx="96" cy="288" stroke="#ffd53d" fill="#ffd53d" transform="matrix(0.75,0,0,0.75,24,72)"/><line x1="0" y1="960" x2="192" y2="1152" stroke="#1d1934" transform="matrix(0.75,0,0,0.75,24,264)"/><line x1="0" y1="1344" x2="192" y2="1536" stroke="#1d1934" transform="matrix(0.75,0,0,0.75,24,360)"/><rect width="192" height="192" x="0" y="1728" stroke="#f25c54" fill="#f25c54" transform="matrix(0.75,0,0,0.75,24,456)"/><line x1="192" y1="192" x2="384" y2="384" stroke="#1d1934" transform="matrix(0.75,0,0,0.75,72,72)"/><circle r="96" cx="288" cy="672" stroke="#ffd53d" fill="#ffd53d" transform="matrix(0.75,0,0,0.75,72,168)"/><rect width="192" height="192" x="192" y="768" stroke="#f25c54" fill="#f25c54" transform="matrix(0.75,0,0,0.75,72,216)"/><circle r="96" cx="288" cy="1248" stroke="#ffd53d" fill="#ffd53d" transform="matrix(0.75,0,0,0.75,72,312)"/><rect width="192" height="192" x="192" y="1536" stroke="#f25c54" fill="#f25c54" transform="matrix(0.75,0,0,0.75,72,408)"/><rect width="192" height="192" x="384" y="0" stroke="#f25c54" fill="#f25c54" transform="matrix(0.75,0,0,0.75,120,24)"/><circle r="96" cx="480" cy="672" stroke="#ffd53d" fill="#ffd53d" transform="matrix(0.75,0,0,0.75,120,168)"/><rect width="192" height="192" x="384" y="1344" stroke="#f25c54" fill="#f25c54" transform="matrix(0.75,0,0,0.75,120,360)"/><circle r="96" cx="480" cy="1824" stroke="#ffd53d" fill="#ffd53d" transform="matrix(0.75,0,0,0.75,120,456)"/><rect width="192" height="192" x="576" y="192" stroke="#f25c54" fill="#f25c54" transform="matrix(0.75,0,0,0.75,168,72)"/><rect width="192" height="192" x="576" y="576" stroke="#f25c54" fill="#f25c54" transform="matrix(0.75,0,0,0.75,168,168)"/><circle r="96" cx="672" cy="1248" stroke="#ffd53d" fill="#ffd53d" transform="matrix(0.75,0,0,0.75,168,312)"/><circle r="96" cx="672" cy="1632" stroke="#ffd53d" fill="#ffd53d" transform="matrix(0.75,0,0,0.75,168,408)"/><rect width="192" height="192" x="768" y="768" stroke="#f25c54" fill="#f25c54" transform="matrix(0.75,0,0,0.75,216,216)"/><circle r="96" cx="864" cy="1056" stroke="#ffd53d" fill="#ffd53d" transform="matrix(0.75,0,0,0.75,216,264)"/><circle r="96" cx="864" cy="1440" stroke="#ffd53d" fill="#ffd53d" transform="matrix(0.75,0,0,0.75,216,360)"/><rect width="192" height="192" x="768" y="1536" stroke="#f25c54" fill="#f25c54" transform="matrix(0.75,0,0,0.75,216,408)"/><line x1="768" y1="1728" x2="960" y2="1920" stroke="#1d1934" transform="matrix(0.75,0,0,0.75,216,456)"/><circle r="96" cx="1056" cy="96" stroke="#ffd53d" fill="#ffd53d" transform="matrix(0.75,0,0,0.75,264,24)"/><line x1="960" y1="192" x2="1152" y2="384" stroke="#1d1934" transform="matrix(0.75,0,0,0.75,264,72)"/><rect width="192" height="192" x="960" y="384" stroke="#f25c54" fill="#f25c54" transform="matrix(0.75,0,0,0.75,264,120)"/><rect width="192" height="192" x="960" y="576" stroke="#f25c54" fill="#f25c54" transform="matrix(0.75,0,0,0.75,264,168)"/><rect width="192" height="192" x="960" y="768" stroke="#f25c54" fill="#f25c54" transform="matrix(0.75,0,0,0.75,264,216)"/><line x1="960" y1="1152" x2="1152" y2="1344" stroke="#1d1934" transform="matrix(0.75,0,0,0.75,264,312)"/><circle r="96" cx="1056" cy="1440" stroke="#ffd53d" fill="#ffd53d" transform="matrix(0.75,0,0,0.75,264,360)"/><line x1="960" y1="1728" x2="1152" y2="1920" stroke="#1d1934" transform="matrix(0.75,0,0,0.75,264,456)"/><circle r="96" cx="1248" cy="288" stroke="#ffd53d" fill="#ffd53d" transform="matrix(0.75,0,0,0.75,312,72)"/><rect width="192" height="192" x="1152" y="768" stroke="#f25c54" fill="#f25c54" transform="matrix(0.75,0,0,0.75,312,216)"/><line x1="1152" y1="960" x2="1344" y2="1152" stroke="#1d1934" transform="matrix(0.75,0,0,0.75,312,264)"/><circle r="96" cx="1248" cy="1248" stroke="#ffd53d" fill="#ffd53d" transform="matrix(0.75,0,0,0.75,312,312)"/><rect width="192" height="192" x="1152" y="1536" stroke="#f25c54" fill="#f25c54" transform="matrix(0.75,0,0,0.75,312,408)"/><rect width="192" height="192" x="1344" y="192" stroke="#f25c54" fill="#f25c54" transform="matrix(0.75,0,0,0.75,360,72)"/><rect width="192" height="192" x="1344" y="768" stroke="#f25c54" fill="#f25c54" transform="matrix(0.75,0,0,0.75,360,216)"/><line x1="1344" y1="1152" x2="1536" y2="1344" stroke="#1d1934" transform="matrix(0.75,0,0,0.75,360,312)"/><line x1="1344" y1="1344" x2="1536" y2="1536" stroke="#1d1934" transform="matrix(0.75,0,0,0.75,360,360)"/><line x1="1536" y1="384" x2="1728" y2="576" stroke="#1d1934" transform="matrix(0.75,0,0,0.75,408,120)"/><circle r="96" cx="1632" cy="1056" stroke="#ffd53d" fill="#ffd53d" transform="matrix(0.75,0,0,0.75,408,264)"/><line x1="1536" y1="1536" x2="1728" y2="1728" stroke="#1d1934" transform="matrix(0.75,0,0,0.75,408,408)"/><circle r="96" cx="1824" cy="96" stroke="#ffd53d" fill="#ffd53d" transform="matrix(0.75,0,0,0.75,456,24)"/><rect width="192" height="192" x="1728" y="192" stroke="#f25c54" fill="#f25c54" transform="matrix(0.75,0,0,0.75,456,72)"/><circle r="96" cx="1824" cy="672" stroke="#ffd53d" fill="#ffd53d" transform="matrix(0.75,0,0,0.75,456,168)"/><circle r="96" cx="1824" cy="1056" stroke="#ffd53d" fill="#ffd53d" transform="matrix(0.75,0,0,0.75,456,264)"/><rect width="192" height="192" x="1728" y="1152" stroke="#f25c54" fill="#f25c54" transform="matrix(0.75,0,0,0.75,456,312)"/><circle r="96" cx="1824" cy="1440" stroke="#ffd53d" fill="#ffd53d" transform="matrix(0.75,0,0,0.75,456,360)"/><circle r="96" cx="1824" cy="1824" stroke="#ffd53d" fill="#ffd53d" transform="matrix(0.75,0,0,0.75,456,456)"/></svg>